   <svg
            viewBox="0 0 282 212"
            fill="none"
            xmlns="http://www.w3.org/2000/svg"
            className="w-10 md:w-12 h-10 md:h-12"
          >
            <path
              d="M246.463 0C258.17 0 269.877 0 281.939 0C281.948 14.9177 281.948 14.9177 281.95 19.5338C281.951 19.6984 281.951 19.863 281.951 20.0327C281.954 25.5754 281.956 31.1181 281.958 36.6609C281.958 36.8418 281.958 37.0227 281.958 37.2091C281.96 41.141 281.961 45.0729 281.962 49.0049C281.963 50.9331 281.963 52.8614 281.964 54.7896C281.964 54.9815 281.964 55.1734 281.964 55.3711C281.966 61.5886 281.969 67.8062 281.974 74.0237C281.978 80.414 281.981 86.8042 281.982 93.1945C281.982 94.0974 281.982 95.0004 281.982 95.9033C281.982 96.081 281.982 96.2587 281.982 96.4418C281.983 99.3004 281.985 102.159 281.988 105.018C281.99 107.893 281.991 110.768 281.991 113.643C281.99 115.2 281.991 116.757 281.993 118.315C281.996 119.741 281.996 121.167 281.994 122.594C281.994 123.109 281.994 123.625 281.996 124.14C282.013 130.571 282.013 130.571 281.252 132.117C281.19 132.45 281.136 132.785 281.088 133.121C281.058 133.318 281.029 133.514 280.999 133.717C280.939 134.134 280.879 134.551 280.818 134.968C280.789 135.164 280.76 135.361 280.73 135.563C280.704 135.744 280.678 135.925 280.651 136.111C280.565 136.536 280.565 136.536 280.337 136.769C280.224 137.311 280.12 137.852 280.022 138.397C279.8 139.578 279.534 140.707 279.132 141.839C278.939 142.425 278.801 143.014 278.663 143.616C278.368 144.843 278.009 146.038 277.619 147.236C277.565 147.401 277.512 147.566 277.457 147.737C276.964 149.229 276.367 150.673 275.759 152.12C275.663 152.35 275.567 152.58 275.468 152.816C274.156 155.94 272.767 158.99 271.149 161.962C270.921 162.394 270.921 162.394 270.724 163.053C270.573 163.053 270.422 163.053 270.266 163.053C270.24 163.181 270.215 163.309 270.188 163.441C270.011 164.076 269.747 164.617 269.451 165.204C269.347 165.412 269.242 165.619 269.135 165.833C269.055 165.99 268.975 166.147 268.893 166.309C268.742 166.309 268.591 166.309 268.435 166.309C268.411 166.44 268.387 166.57 268.362 166.705C268.048 167.782 267.334 168.691 266.733 169.624C266.596 169.841 266.459 170.059 266.318 170.283C266.186 170.489 266.054 170.695 265.918 170.906C265.798 171.095 265.677 171.284 265.552 171.479C265.446 171.615 265.34 171.751 265.231 171.891C265.08 171.891 264.929 171.891 264.773 171.891C264.622 172.352 264.471 172.812 264.315 173.287C264.164 173.287 264.013 173.287 263.858 173.287C263.801 173.412 263.744 173.536 263.686 173.665C263.33 174.353 262.934 174.984 262.484 175.613C262.333 175.613 262.182 175.613 262.027 175.613C261.965 175.746 261.904 175.879 261.841 176.016C261.559 176.562 261.243 177.037 260.882 177.532C260.705 177.778 260.705 177.778 260.525 178.03C260.416 178.153 260.307 178.277 260.196 178.404C260.044 178.404 259.893 178.404 259.738 178.404C259.738 178.558 259.738 178.711 259.738 178.869C259.587 178.869 259.436 178.869 259.28 178.869C259.219 179.006 259.159 179.142 259.096 179.283C258.814 179.816 258.51 180.19 258.101 180.629C257.891 180.856 257.891 180.856 257.677 181.088C257.531 181.243 257.385 181.399 257.234 181.559C257.017 181.793 257.017 181.793 256.795 182.033C256.404 182.453 256.013 182.872 255.618 183.289C255.499 183.42 255.379 183.552 255.256 183.688C254.931 183.987 254.931 183.987 254.474 183.987C254.474 184.14 254.474 184.294 254.474 184.452C254.323 184.452 254.172 184.452 254.016 184.452C254.016 184.605 254.016 184.759 254.016 184.917C253.682 185.268 253.682 185.268 253.243 185.644C253.028 185.832 253.028 185.832 252.809 186.024C252.414 186.313 252.414 186.313 251.956 186.313C251.956 186.466 251.956 186.62 251.956 186.778C251.471 187.23 251.471 187.23 250.84 187.737C250.633 187.906 250.426 188.074 250.213 188.248C249.667 188.639 249.667 188.639 249.21 188.639C249.21 188.792 249.21 188.946 249.21 189.104C248.835 189.43 248.443 189.736 248.045 190.033C247.922 190.125 247.799 190.217 247.673 190.311C246.32 191.316 244.942 192.286 243.556 193.243C243.122 193.543 242.69 193.845 242.259 194.148C241.982 194.34 241.704 194.532 241.427 194.723C241.179 194.895 240.932 195.067 240.677 195.244C240.054 195.617 240.054 195.617 239.368 195.617C239.368 195.77 239.368 195.924 239.368 196.082C238.964 196.316 238.558 196.548 238.152 196.78C237.926 196.909 237.701 197.039 237.468 197.172C236.85 197.477 236.85 197.477 236.164 197.477C236.164 197.631 236.164 197.784 236.164 197.943C236.038 198.002 235.912 198.062 235.783 198.124C235.208 198.397 234.635 198.671 234.061 198.946C233.863 199.04 233.665 199.134 233.461 199.231C232.685 199.602 231.926 199.968 231.19 200.419C230.571 200.794 229.946 201.034 229.269 201.286C228.314 201.65 227.386 202.033 226.465 202.478C225.199 203.078 223.893 203.513 222.563 203.941C221.735 204.214 221.735 204.214 220.917 204.584C220.242 204.878 219.608 205.089 218.898 205.269C218.157 205.466 217.447 205.675 216.738 205.967C215.705 206.38 214.636 206.598 213.554 206.84C212.928 206.988 212.328 207.162 211.717 207.363C210.584 207.722 209.432 207.936 208.266 208.147C207.262 208.33 206.272 208.544 205.28 208.788C204.128 209.067 203.009 209.222 201.832 209.34C201.681 209.417 201.53 209.494 201.374 209.573C200.729 209.645 200.084 209.691 199.436 209.74C198.859 209.771 198.859 209.771 198.399 210.038C197.909 210.086 197.417 210.123 196.926 210.154C196.134 210.204 195.49 210.248 194.737 210.503C194.131 210.55 193.528 210.589 192.92 210.619C191.78 210.65 191.78 210.65 190.664 210.854C189.955 211.015 189.276 210.998 188.55 210.999C188.396 210.999 188.242 211 188.084 211C187.759 211 187.434 210.999 187.109 210.999C186.614 210.997 186.118 210.999 185.622 211C185.306 211 184.99 211 184.674 210.999C184.244 210.999 184.244 210.999 183.805 210.998C183.197 210.974 182.726 210.904 182.149 210.736C181.327 210.665 180.504 210.618 179.68 210.568C178.945 210.503 178.945 210.503 178.258 210.27C177.61 210.2 176.962 210.152 176.312 210.103C175.74 210.038 175.74 210.038 175.283 209.805C174.99 209.776 174.697 209.748 174.396 209.718C173.306 209.605 172.286 209.346 171.228 209.064C170.433 208.864 169.636 208.708 168.831 208.555C167.377 208.267 165.976 207.881 164.559 207.442C163.59 207.142 162.622 206.874 161.636 206.636C160.636 206.39 159.746 206.044 158.804 205.618C158.466 205.512 158.128 205.411 157.788 205.313C155.437 204.618 153.148 203.699 150.934 202.641C150.313 202.351 149.683 202.095 149.048 201.839C147.692 201.272 146.416 200.584 145.127 199.877C143.837 199.172 142.527 198.531 141.18 197.943C141.18 197.789 141.18 197.636 141.18 197.477C141.057 197.455 140.933 197.432 140.806 197.409C140.11 197.198 139.557 196.854 138.934 196.474C138.573 196.256 138.573 196.256 138.204 196.033C137.978 195.895 137.751 195.758 137.518 195.617C136.986 195.304 136.451 194.995 135.916 194.686C135.916 194.533 135.916 194.379 135.916 194.221C135.725 194.185 135.725 194.185 135.53 194.148C134.891 193.955 134.402 193.676 133.856 193.291C133.856 193.137 133.856 192.984 133.856 192.825C133.702 192.773 133.548 192.72 133.389 192.665C132.524 192.276 131.803 191.758 131.038 191.197C130.89 191.092 130.743 190.987 130.591 190.879C130.22 190.61 129.863 190.323 129.508 190.034C129.508 189.881 129.508 189.727 129.508 189.569C129.342 189.511 129.177 189.454 129.007 189.395C128.3 189.075 127.789 188.703 127.219 188.173C127.219 188.02 127.219 187.866 127.219 187.708C127.068 187.708 126.917 187.708 126.761 187.708C126.761 187.555 126.761 187.401 126.761 187.243C126.634 187.188 126.506 187.132 126.375 187.075C125.726 186.711 125.244 186.258 124.701 185.746C123.893 184.986 123.893 184.986 123.027 184.298C122.836 184.144 122.836 184.144 122.641 183.987C122.641 183.833 122.641 183.68 122.641 183.521C122.49 183.521 122.339 183.521 122.184 183.521C122.184 183.368 122.184 183.214 122.184 183.056C122.032 183.056 121.881 183.056 121.726 183.056C121.726 182.903 121.726 182.749 121.726 182.591C121.575 182.591 121.424 182.591 121.268 182.591C121.268 182.437 121.268 182.284 121.268 182.126C121.117 182.126 120.966 182.126 120.81 182.126C120.81 181.972 120.81 181.819 120.81 181.661C120.659 181.661 120.508 181.661 120.352 181.661C120.352 181.507 120.352 181.354 120.352 181.195C120.201 181.195 120.05 181.195 119.895 181.195C119.532 180.797 119.186 180.382 118.851 179.96C118.666 179.73 118.482 179.501 118.292 179.265C117.835 178.637 117.835 178.637 117.606 177.939C117.455 177.939 117.304 177.939 117.148 177.939C117.148 177.785 117.148 177.632 117.148 177.474C116.997 177.474 116.846 177.474 116.69 177.474C116.345 177.083 116.345 177.083 115.975 176.572C115.852 176.405 115.729 176.238 115.602 176.065C115.317 175.613 115.317 175.613 115.317 175.148C115.166 175.148 115.015 175.148 114.859 175.148C114.448 174.623 114.064 174.098 113.686 173.549C113.579 173.397 113.472 173.246 113.362 173.09C112.571 171.953 112.571 171.953 112.571 171.426C112.42 171.426 112.269 171.426 112.113 171.426C111.768 170.993 111.768 170.993 111.398 170.423C111.213 170.144 111.213 170.144 111.024 169.859C110.74 169.333 110.74 169.333 110.74 168.635C110.589 168.635 110.438 168.635 110.282 168.635C110.055 167.944 110.055 167.944 109.824 167.239C109.673 167.239 109.522 167.239 109.366 167.239C108.451 165.698 108.451 165.698 108.451 164.913C108.3 164.913 108.149 164.913 107.993 164.913C107.831 164.579 107.831 164.579 107.665 164.238C107.512 163.925 107.359 163.613 107.206 163.3C107.125 163.132 107.043 162.965 106.958 162.792C106.449 161.757 105.922 160.733 105.378 159.716C104.416 157.914 103.601 156.091 102.858 154.186C102.555 153.411 102.221 152.656 101.871 151.902C101.442 150.961 101.129 150.03 100.855 149.032C100.633 148.275 100.366 147.541 100.097 146.8C99.6459 145.537 99.2961 144.282 98.9955 142.975C98.8531 142.41 98.6787 141.889 98.4663 141.348C98.1549 140.5 98.046 139.755 97.9227 138.862C97.8226 138.565 97.7172 138.269 97.608 137.975C97.1546 136.681 96.9799 135.338 96.7789 133.985C96.7182 133.093 96.7182 133.093 96.3206 132.349C96.273 132.007 96.2365 131.662 96.2061 131.317C96.1394 130.525 96.1394 130.525 95.8628 129.791C95.7992 129.378 95.746 128.964 95.6983 128.549C95.6691 128.302 95.6399 128.054 95.6098 127.8C95.5651 127.411 95.5651 127.411 95.5195 127.014C95.4605 126.503 95.401 125.992 95.3407 125.481C95.3146 125.254 95.2885 125.027 95.2616 124.793C95.1891 124.181 95.1891 124.181 94.9473 123.511C94.8882 122.77 94.8463 122.031 94.8087 121.289C94.769 120.584 94.7105 119.998 94.4895 119.324C94.4584 118.945 94.4382 118.565 94.4252 118.185C94.4166 117.963 94.4081 117.741 94.3992 117.512C94.3913 117.28 94.3833 117.048 94.3751 116.809C94.3592 116.352 94.3426 115.895 94.325 115.438C94.3181 115.235 94.3112 115.032 94.304 114.824C94.2708 114.197 94.2708 114.197 94.1441 113.547C94.0121 112.682 93.9989 111.834 94.0014 110.961C94.0012 110.789 94.001 110.616 94.0007 110.439C94.0006 110.076 94.001 109.714 94.002 109.352C94.0032 108.797 94.002 108.242 94.0005 107.687C94.0007 107.334 94.0009 106.981 94.0014 106.629C94.0009 106.463 94.0005 106.297 94 106.125C94.0055 104.956 94.0055 104.956 94.2607 104.437C94.3072 104.012 94.3441 103.585 94.3751 103.158C94.4641 101.93 94.4641 101.93 94.7184 101.414C94.7597 101.104 94.7918 100.794 94.8186 100.483C95.1429 97.2607 95.1429 97.2607 95.6339 96.7616C95.7466 96.1758 95.8501 95.5909 95.9486 95.0026C96.1531 93.8337 96.3768 92.7534 96.8346 91.6571C97.1604 90.7549 97.331 89.8083 97.5347 88.8714C97.7109 88.0784 97.9202 87.305 98.1516 86.5272C98.3026 86.5272 98.4537 86.5272 98.6093 86.5272C98.6093 86.0667 98.6093 85.6061 98.6093 85.1316C98.7604 85.1316 98.9114 85.1316 99.0671 85.1316C99.0671 84.6711 99.0671 84.2105 99.0671 83.736C99.2181 83.736 99.3692 83.736 99.5248 83.736C99.5248 83.2755 99.5248 82.8149 99.5248 82.3404C99.6759 82.3404 99.8269 82.3404 99.9826 82.3404C100.009 82.1425 100.036 81.9446 100.064 81.7407C100.218 80.9097 100.455 80.1686 100.741 79.3747C100.842 79.0923 100.944 78.8099 101.048 78.5189C101.44 77.4601 101.847 76.4082 102.271 75.3624C102.422 75.3624 102.573 75.3624 102.729 75.3624C102.751 75.2077 102.774 75.053 102.797 74.8936C103.001 74.0148 103.342 73.2182 103.702 72.3967C103.8 72.1647 103.8 72.1647 103.901 71.9279C104.432 70.7037 105.055 69.5471 105.704 68.3844C105.885 68.0521 106.065 67.7196 106.244 67.3868C107.345 65.3563 108.475 63.3505 109.661 61.3701C109.879 61.0014 110.093 60.6285 110.282 60.2434C110.433 60.2434 110.584 60.2434 110.74 60.2434C110.891 59.7829 111.042 59.3223 111.197 58.8478C111.349 58.8478 111.5 58.8478 111.655 58.8478C111.882 58.157 111.882 58.157 112.113 57.4522C112.264 57.4522 112.415 57.4522 112.571 57.4522C112.623 57.2912 112.676 57.1302 112.73 56.9643C113.093 56.1444 113.595 55.4877 114.144 54.7918C114.344 54.5357 114.544 54.2791 114.743 54.0223C114.84 53.8979 114.937 53.7735 115.036 53.6453C115.318 53.2649 115.569 52.8741 115.82 52.4722C115.956 52.2734 116.092 52.0746 116.233 51.8698C116.384 51.8698 116.535 51.8698 116.69 51.8698C116.69 51.7163 116.69 51.5628 116.69 51.4046C116.842 51.4046 116.993 51.4046 117.148 51.4046C117.21 51.2715 117.271 51.1383 117.334 51.0012C117.615 50.4559 117.932 49.9801 118.293 49.4856C118.411 49.3213 118.529 49.157 118.65 48.9877C118.759 48.8642 118.867 48.7407 118.979 48.6134C119.13 48.6134 119.281 48.6134 119.437 48.6134C119.437 48.4599 119.437 48.3064 119.437 48.1482C119.588 48.1482 119.739 48.1482 119.895 48.1482C119.895 47.9947 119.895 47.8412 119.895 47.683C120.046 47.683 120.197 47.683 120.352 47.683C120.413 47.546 120.473 47.4091 120.536 47.268C120.82 46.7338 121.119 46.3785 121.54 45.9494C121.751 45.7335 121.751 45.7335 121.967 45.5133C122.114 45.3658 122.261 45.2182 122.412 45.0662C122.633 44.8396 122.633 44.8396 122.858 44.6083C123.069 44.3942 123.069 44.3942 123.285 44.1758C123.414 44.0453 123.543 43.9148 123.676 43.7804C124.015 43.4962 124.015 43.4962 124.472 43.4962C124.472 43.3427 124.472 43.1892 124.472 43.031C124.623 43.031 124.774 43.031 124.93 43.031C124.93 42.8775 124.93 42.724 124.93 42.5658C125.081 42.5658 125.232 42.5658 125.388 42.5658C125.388 42.4123 125.388 42.2588 125.388 42.1006C125.78 41.7318 126.188 41.3806 126.604 41.0394C126.829 40.852 127.055 40.6646 127.288 40.4715C127.905 40.0072 127.905 40.0072 128.592 39.7746C128.592 39.6211 128.592 39.4676 128.592 39.3094C129.158 39.0791 129.158 39.0791 129.736 38.8442C129.736 38.6907 129.736 38.5372 129.736 38.379C130.086 38.07 130.086 38.07 130.571 37.723C130.745 37.5986 130.918 37.4741 131.097 37.3459C131.281 37.2167 131.464 37.0875 131.653 36.9543C131.835 36.8233 132.017 36.6923 132.204 36.5573C133.567 35.5878 133.567 35.5878 134.085 35.5878C134.085 35.4343 134.085 35.2808 134.085 35.1226C134.312 35.1226 134.538 35.1226 134.772 35.1226C134.772 34.9691 134.772 34.8156 134.772 34.6574C134.998 34.6574 135.225 34.6574 135.458 34.6574C135.458 34.5039 135.458 34.3504 135.458 34.1922C135.638 34.0946 135.638 34.0946 135.82 33.995C136.809 33.4477 137.764 32.8728 138.705 32.2442C139.903 31.4599 141.145 30.8169 142.425 30.1835C143.233 29.7762 144.023 29.3431 144.814 28.9005C145.724 28.3977 146.606 27.9593 147.585 27.6185C148.164 27.4029 148.717 27.1428 149.277 26.8798C151.091 26.0341 152.86 25.3298 154.795 24.8219C155.417 24.6564 155.417 24.6564 156.157 24.3067C157.101 23.903 158.04 23.6762 159.033 23.4354C159.811 23.2366 160.56 22.9874 161.318 22.723C162.333 22.369 163.316 22.0912 164.382 21.9662C165.167 21.9579 165.167 21.9579 165.441 21.6318C165.758 21.5659 166.078 21.5124 166.399 21.4646C166.592 21.4349 166.785 21.4053 166.985 21.3747C167.188 21.3444 167.391 21.3141 167.601 21.2829C168.001 21.223 168.402 21.1625 168.802 21.1012C168.98 21.0746 169.158 21.0481 169.342 21.0208C169.806 20.9523 169.806 20.9523 170.247 20.7014C170.893 20.6285 171.538 20.5827 172.186 20.5342C172.763 20.5034 172.763 20.5034 173.223 20.2362C173.987 20.1626 174.752 20.1173 175.519 20.069C176.181 20.0471 176.181 20.0471 176.656 19.771C176.96 19.7388 177.265 19.7187 177.57 19.7056C177.84 19.6925 177.84 19.6925 178.116 19.6792C178.304 19.6711 178.493 19.663 178.687 19.6547C179.059 19.6386 179.43 19.6217 179.801 19.6038C179.966 19.5968 180.131 19.5897 180.301 19.5825C180.767 19.555 180.767 19.555 181.167 19.4212C181.863 19.2679 182.521 19.2762 183.234 19.2757C183.464 19.2751 183.464 19.2751 183.698 19.2745C184.202 19.2734 184.707 19.2741 185.211 19.2749C185.562 19.2748 185.913 19.2745 186.264 19.2742C187 19.2739 187.735 19.2744 188.47 19.2755C189.412 19.2768 190.355 19.276 191.297 19.2746C192.022 19.2738 192.747 19.2741 193.472 19.2747C193.819 19.2748 194.167 19.2746 194.514 19.2741C195 19.2735 195.485 19.2744 195.97 19.2757C196.247 19.2759 196.523 19.2761 196.808 19.2763C197.484 19.3058 197.484 19.3058 198.17 19.5384C198.997 19.6104 199.824 19.6569 200.653 19.7056C201.374 19.771 201.374 19.771 201.832 20.0036C202.213 20.0506 202.595 20.0883 202.977 20.1199C204.07 20.2104 204.07 20.2104 204.579 20.4688C205.025 20.512 205.025 20.512 205.48 20.556C206.551 20.6647 207.538 20.9363 208.57 21.2393C209.191 21.4219 209.191 21.4219 209.986 21.5155C210.789 21.6365 211.478 21.8662 212.241 22.1388C212.89 22.3532 213.542 22.5171 214.206 22.6785C215.149 22.9112 216.038 23.1854 216.939 23.5507C217.471 23.7538 218.009 23.9139 218.554 24.0741C219.334 24.3066 220.066 24.5755 220.807 24.9173C221.476 25.201 222.16 25.4328 222.846 25.6732C224.038 26.0998 225.148 26.5883 226.266 27.1851C226.759 27.4362 227.248 27.6362 227.767 27.8248C228.503 28.1037 229.09 28.4291 229.755 28.8424C230.257 29.0042 230.257 29.0042 230.671 29.075C230.671 29.2285 230.671 29.382 230.671 29.5402C230.973 29.5402 231.275 29.5402 231.586 29.5402C231.586 29.6937 231.586 29.8472 231.586 30.0054C231.715 30.0327 231.843 30.06 231.976 30.0881C232.56 30.2546 233.05 30.494 233.589 30.7759C233.788 30.879 233.986 30.9822 234.191 31.0884C234.389 31.1916 234.587 31.2947 234.79 31.401C235.143 31.5808 235.496 31.7601 235.849 31.9389C236.104 32.0684 236.359 32.1979 236.621 32.3314C236.621 32.4849 236.621 32.6384 236.621 32.7966C236.805 32.8326 236.805 32.8326 236.993 32.8693C237.68 33.0713 238.278 33.3912 238.91 33.727C238.91 33.8805 238.91 34.034 238.91 34.1922C239.039 34.2168 239.167 34.2414 239.3 34.2668C240.36 34.5853 241.254 35.3114 242.172 35.9222C242.386 36.0614 242.6 36.2007 242.821 36.3442C243.023 36.4781 243.225 36.612 243.434 36.7499C243.62 36.8727 243.806 36.9954 243.997 37.1219C244.131 37.2297 244.265 37.3375 244.403 37.4486C244.403 37.6021 244.403 37.7556 244.403 37.9138C244.63 37.9138 244.856 37.9138 245.09 37.9138C245.09 38.0673 245.09 38.2208 245.09 38.379C245.656 38.6093 245.656 38.6093 246.234 38.8442C246.31 26.0256 246.385 13.207 246.463 0ZM183.751 56.987C183.251 57.027 182.75 57.0604 182.249 57.0888C180.027 57.2418 177.913 57.6286 175.76 58.2C175.008 58.3944 174.253 58.5631 173.495 58.7315C172.423 58.9799 171.48 59.3163 170.476 59.7782C170.115 59.8889 169.753 59.9951 169.389 60.098C168.292 60.42 167.289 60.8707 166.258 61.3655C165.67 61.639 165.67 61.639 164.812 61.9443C162.54 62.7832 160.388 64.1588 158.385 65.5123C157.888 65.8258 157.888 65.8258 157.201 66.0584C157.201 66.2119 157.201 66.3654 157.201 66.5236C156.975 66.5236 156.748 66.5236 156.515 66.5236C156.515 66.6771 156.515 66.8306 156.515 66.9888C156.288 66.9888 156.062 66.9888 155.828 66.9888C155.828 67.1423 155.828 67.2958 155.828 67.454C155.667 67.5116 155.505 67.5691 155.339 67.6284C154.599 67.9567 154.006 68.367 153.354 68.8496C153.13 69.0127 152.907 69.1758 152.677 69.3439C152.424 69.5598 152.424 69.5598 152.166 69.78C152.166 69.9335 152.166 70.087 152.166 70.2452C152.029 70.3124 151.892 70.3795 151.751 70.4487C151.206 70.7214 151.206 70.7214 150.564 71.1756C150.564 71.3291 150.564 71.4826 150.564 71.6408C150.432 71.6996 150.3 71.7584 150.164 71.8189C149.586 72.1408 149.197 72.505 148.73 72.9773C148.558 73.1516 148.386 73.3259 148.208 73.5054C148.027 73.6912 147.846 73.8771 147.66 74.0686C147.474 74.2591 147.288 74.4495 147.097 74.6458C145.798 75.989 144.581 77.3427 143.469 78.8514C143.368 78.9859 143.268 79.1205 143.165 79.2591C140.817 81.9892 140.817 81.9892 139.578 85.1316C139.427 85.1316 139.276 85.1316 139.12 85.1316C139.059 85.2563 138.998 85.3811 138.934 85.5096C138.845 85.6919 138.755 85.8742 138.663 86.062C138.559 86.2734 138.455 86.4848 138.348 86.7026C138.077 87.2524 137.805 87.8018 137.532 88.3507C136.83 89.7674 136.129 91.1857 135.458 92.6184C135.369 92.8088 135.279 92.9992 135.187 93.1954C134.981 93.7951 134.965 94.2702 135.001 94.9008C134.849 94.9008 134.698 94.9008 134.543 94.9008C134.501 95.0639 134.46 95.227 134.417 95.3951C134.11 96.5701 133.79 97.7172 133.34 98.8441C132.839 100.243 132.576 101.65 132.354 103.114C132.055 105.075 132.055 105.075 131.796 105.6C131.225 108.448 131.268 111.336 131.279 114.229C131.281 115.019 131.279 115.809 131.276 116.599C131.274 119.254 131.332 121.822 131.796 124.441C131.833 124.661 131.87 124.881 131.909 125.108C132.011 125.692 132.123 126.273 132.24 126.854C132.276 127.043 132.311 127.231 132.348 127.426C132.571 128.551 132.867 129.619 133.238 130.703C133.457 131.364 133.624 132.034 133.785 132.713C133.871 133.073 133.871 133.073 133.959 133.441C134.001 133.618 134.042 133.795 134.085 133.978C134.236 133.978 134.387 133.978 134.543 133.978C134.532 134.144 134.521 134.31 134.51 134.482C134.548 135.239 134.745 135.698 135.072 136.376C135.421 137.105 135.738 137.827 136.006 138.59C136.378 139.616 136.862 140.562 137.375 141.523C137.466 141.696 137.558 141.868 137.652 142.047C137.911 142.537 138.172 143.025 138.434 143.514C138.551 143.736 138.669 143.958 138.79 144.187C139.314 145.161 139.873 146.088 140.494 147.003C140.627 147.21 140.76 147.416 140.898 147.629C141.48 148.505 142.088 149.355 142.711 150.201C142.831 150.364 142.95 150.527 143.074 150.695C143.942 151.862 144.852 152.957 145.839 154.023C146.215 154.446 146.215 154.446 146.444 154.912C146.595 154.912 146.746 154.912 146.902 154.912C146.902 155.065 146.902 155.219 146.902 155.377C147.053 155.377 147.204 155.377 147.36 155.377C147.416 155.521 147.473 155.665 147.531 155.813C147.865 156.389 148.133 156.528 148.733 156.772C148.733 156.926 148.733 157.079 148.733 157.238C148.884 157.238 149.035 157.238 149.191 157.238C149.191 157.391 149.191 157.545 149.191 157.703C149.745 158.303 150.398 158.807 151.022 159.331C151.14 159.431 151.258 159.532 151.379 159.635C153.665 161.574 156.063 163.291 158.575 164.913C158.923 165.139 158.923 165.139 159.277 165.369C164.735 168.742 170.898 170.961 177.114 172.357C177.422 172.43 177.422 172.43 177.737 172.505C184.75 174.111 193.246 174.082 200.23 172.357C200.601 172.271 200.601 172.271 200.98 172.183C207.933 170.559 214.693 167.867 220.6 163.75C220.739 163.654 220.879 163.557 221.022 163.458C222.676 162.305 224.257 161.084 225.794 159.775C226.322 159.331 226.322 159.331 226.849 158.952C226.977 158.847 227.106 158.742 227.237 158.633C227.237 158.48 227.237 158.326 227.237 158.168C227.438 158.077 227.438 158.077 227.644 157.984C228.184 157.686 228.544 157.365 228.979 156.925C229.208 156.693 229.208 156.693 229.442 156.457C229.682 156.21 229.682 156.21 229.927 155.958C230.174 155.705 230.174 155.705 230.426 155.446C231.588 154.243 232.653 153.007 233.646 151.655C233.92 151.302 234.195 150.949 234.469 150.596C236.586 147.85 238.349 145.037 239.826 141.886C240.102 141.338 240.378 140.791 240.655 140.243C241.297 138.942 241.835 137.626 242.332 136.262C242.515 135.761 242.718 135.267 242.93 134.777C244.19 131.715 244.994 128.406 245.547 125.139C245.587 124.905 245.627 124.67 245.668 124.429C246.624 118.281 246.76 111.371 245.483 105.27C245.36 104.646 245.268 104.047 245.197 103.416C245.181 102.622 245.181 102.622 244.861 102.344C244.753 101.861 244.655 101.376 244.56 100.89C244.102 98.6595 243.488 96.5204 242.572 94.4356C242.277 93.6686 241.987 92.8993 241.699 92.1296C241.461 91.5003 241.218 90.8738 240.97 90.2488C240.819 90.2488 240.668 90.2488 240.512 90.2488C240.479 90.0713 240.446 89.8938 240.412 89.7109C240.292 89.0668 240.292 89.0668 240.054 88.388C239.903 88.388 239.752 88.388 239.597 88.388C239.597 88.081 239.597 87.7739 239.597 87.4576C239.446 87.4576 239.295 87.4576 239.139 87.4576C239.112 87.3242 239.084 87.1907 239.056 87.0533C238.628 85.5089 237.585 84.1218 236.697 82.8156C236.405 82.3599 236.164 81.9011 235.935 81.41C235.784 81.41 235.633 81.41 235.477 81.41C235.378 81.1437 235.378 81.1437 235.277 80.8721C235.028 80.212 235.028 80.212 234.561 79.5492C234.41 79.5492 234.259 79.5492 234.104 79.5492C234.047 79.4245 233.99 79.2997 233.932 79.1712C233.576 78.4833 233.18 77.8519 232.73 77.2232C232.579 77.2232 232.428 77.2232 232.273 77.2232C232.188 77.0226 232.188 77.0226 232.102 76.818C231.77 76.2099 231.379 75.8129 230.885 75.3333C230.006 74.4772 230.006 74.4772 229.755 73.9668C229.604 73.9668 229.453 73.9668 229.297 73.9668C229.297 73.8133 229.297 73.6598 229.297 73.5016C228.912 73.105 228.912 73.1051 228.425 72.702C227.5 71.9096 227.5 71.9096 227.092 71.4727C226.795 71.1226 226.795 71.1226 226.322 71.1756C226.322 71.0221 226.322 70.8686 226.322 70.7104C225.844 70.2928 225.366 69.9031 224.863 69.5183C224.656 69.3551 224.656 69.3551 224.444 69.1885C223.745 68.5853 223.745 68.5853 222.889 68.3844C222.889 68.2309 222.889 68.0774 222.889 67.9192C222.338 67.4995 221.79 67.1099 221.215 66.7271C221.057 66.6183 220.899 66.5094 220.736 66.3973C220.584 66.2945 220.431 66.1916 220.274 66.0857C220.133 65.9912 219.993 65.8967 219.849 65.7993C219.428 65.5399 219.428 65.5399 218.769 65.5932C218.769 65.4397 218.769 65.2862 218.769 65.128C218.365 64.8936 217.959 64.6614 217.553 64.4302C217.215 64.2359 217.215 64.2359 216.869 64.0377C216.263 63.6815 216.263 63.6815 215.565 63.7324C215.565 63.5789 215.565 63.4254 215.565 63.2672C215.263 63.2672 214.961 63.2672 214.649 63.2672C214.649 63.1137 214.649 62.9602 214.649 62.802C214.347 62.802 214.045 62.802 213.734 62.802C213.734 62.6485 213.734 62.495 213.734 62.3368C213.358 62.2001 213.358 62.2001 212.976 62.0606C212.188 61.7628 211.432 61.4211 210.673 61.0575C209.673 60.5881 208.685 60.2365 207.626 59.9354C207.096 59.7782 207.096 59.7782 206.252 59.4438C203.225 58.274 199.983 57.732 196.797 57.2196C196.623 57.1913 196.448 57.1631 196.268 57.134C193.679 56.736 191.085 56.7129 188.472 56.7108C188.219 56.7104 188.219 56.7104 187.961 56.71C187.476 56.7101 186.991 56.7122 186.507 56.7153C186.224 56.7171 185.941 56.7188 185.65 56.7206C184.986 56.7504 184.397 56.84 183.751 56.987Z"
              fill="#FFFFFF"
            />
            <path
              d="M57.86 0C69.7088 0 81.5575 0 93.7653 0C93.8319 10.1362 93.8319 10.1362 93.8578 14.4221C93.8756 17.3677 93.8936 20.3133 93.9135 23.2589C93.928 25.4053 93.9416 27.5517 93.954 29.6981C93.9606 30.8316 93.9676 31.9652 93.9758 33.0987C94.005 37.1649 94.0337 41.2282 93.8957 45.2927C93.8866 45.5609 93.8775 45.829 93.8682 46.1052C93.7958 47.8979 93.7958 47.8979 93.5366 48.6901C93.4957 49.1068 93.4635 49.5244 93.4365 49.9423C93.1355 53.9336 93.1355 53.9336 92.6218 54.9802C92.5514 55.5232 92.5054 56.0664 92.4574 56.6119C92.3931 57.0769 92.3931 57.0769 92.1644 57.3099C92.0559 57.8177 91.9579 58.3278 91.8643 58.8387C91.6144 60.1576 91.3371 61.466 91.0209 62.7701C90.9502 63.0629 90.8794 63.3557 90.8065 63.6573C90.5938 64.4229 90.3441 65.144 90.0632 65.8845C89.6217 67.0997 89.2675 68.3475 88.8926 69.5852C88.5025 70.8541 88.0719 72.0914 87.5752 73.3211C87.3527 73.8731 87.1422 74.429 86.933 74.9863C86.5058 76.0733 86.0023 77.1083 85.4795 78.1504C85.0769 78.9716 84.6942 79.8001 84.3139 80.6322C83.61 82.1699 82.9108 83.6838 82.0196 85.1203C81.7157 85.6156 81.4258 86.1137 81.1406 86.6201C79.8899 88.8359 78.5433 90.9508 77.0956 93.038C76.8657 93.3839 76.6588 93.7453 76.455 94.1078C76.3068 94.3438 76.3069 94.3438 76.1557 94.5846C76.0048 94.5846 75.8538 94.5846 75.6983 94.5846C75.6323 94.7191 75.5663 94.8537 75.4982 94.9923C75.26 95.4777 75.0218 95.963 74.7835 96.4483C74.6326 96.4483 74.4817 96.4483 74.3261 96.4483C74.2412 96.6357 74.2412 96.6357 74.1546 96.8269C73.7987 97.5159 73.4035 98.1484 72.954 98.778C72.803 98.778 72.6521 98.778 72.4966 98.778C72.44 98.9065 72.3834 99.0351 72.3251 99.1675C71.9838 99.815 71.5734 100.358 71.1244 100.933C70.964 101.141 70.8037 101.349 70.6384 101.563C70.4969 101.72 70.3554 101.877 70.2096 102.04C70.0587 102.04 69.9077 102.04 69.7522 102.04C69.7522 102.193 69.7522 102.347 69.7522 102.505C69.6013 102.505 69.4504 102.505 69.2948 102.505C69.2135 102.702 69.2135 102.702 69.1305 102.902C68.7704 103.56 68.3305 104.014 67.8083 104.548C67.6055 104.755 67.4027 104.962 67.1937 105.176C66.9814 105.39 66.7692 105.604 66.5505 105.825C66.3382 106.043 66.126 106.261 65.9073 106.486C65.7045 106.692 65.5016 106.898 65.2927 107.11C65.1063 107.299 64.92 107.489 64.7281 107.684C64.2635 108.097 64.2635 108.097 63.8061 108.097C63.8061 108.25 63.8061 108.404 63.8061 108.563C63.6552 108.563 63.5043 108.563 63.3487 108.563C63.3487 108.716 63.3487 108.87 63.3487 109.029C63.1978 109.029 63.0469 109.029 62.8914 109.029C62.8914 109.182 62.8914 109.336 62.8914 109.495C62.4697 109.892 62.4697 109.892 61.8622 110.383C61.6349 110.568 61.4076 110.753 61.1735 110.943C61.0469 111.046 60.9203 111.148 60.7899 111.254C60.3377 111.622 59.8897 111.996 59.4422 112.37C59.2821 112.504 59.122 112.638 58.9571 112.775C58.6415 113.039 58.3261 113.303 58.011 113.567C57.15 114.283 56.2805 114.941 55.3444 115.552C55.5331 115.696 55.7217 115.84 55.9161 115.988C56.1048 116.152 56.2935 116.315 56.4879 116.484C56.4879 116.637 56.4879 116.791 56.4879 116.949C56.6624 117.017 56.8369 117.084 57.0167 117.153C57.6313 117.415 57.6314 117.415 58.3174 117.881C58.3174 118.035 58.3174 118.189 58.3174 118.347C58.5067 118.434 58.5067 118.434 58.6998 118.522C59.3354 118.87 59.8683 119.288 60.4329 119.745C60.6369 119.908 60.8409 120.072 61.0511 120.24C61.2055 120.384 61.36 120.528 61.5192 120.677C61.5192 120.831 61.5192 120.984 61.5192 121.143C61.6701 121.143 61.8211 121.143 61.9766 121.143C61.9766 121.297 61.9766 121.45 61.9766 121.609C62.1275 121.609 62.2785 121.609 62.434 121.609C62.434 121.763 62.434 121.916 62.434 122.075C62.5849 122.075 62.7358 122.075 62.8914 122.075C62.8914 122.228 62.8914 122.382 62.8914 122.541C63.0222 122.598 63.1531 122.656 63.288 122.715C63.8862 123.052 64.2973 123.445 64.7781 123.938C64.9396 124.102 65.1012 124.265 65.2677 124.434C65.6357 124.87 65.6357 124.87 65.6357 125.336C65.7866 125.336 65.9376 125.336 66.0931 125.336C66.0931 125.49 66.0931 125.644 66.0931 125.802C66.244 125.802 66.395 125.802 66.5505 125.802C66.5505 125.956 66.5505 126.11 66.5505 126.268C66.7014 126.268 66.8524 126.268 67.0079 126.268C67.0079 126.422 67.0079 126.576 67.0079 126.734C67.1588 126.734 67.3098 126.734 67.4653 126.734C67.4653 126.888 67.4653 127.042 67.4653 127.2C67.6162 127.2 67.7671 127.2 67.9227 127.2C68.2852 127.599 68.6306 128.015 68.9661 128.438C69.1503 128.667 69.3346 128.897 69.5244 129.134C69.9809 129.763 69.9809 129.763 70.2096 130.462C70.3606 130.462 70.5115 130.462 70.667 130.462C71.0118 130.853 71.0118 130.853 71.3817 131.364C71.5049 131.532 71.6281 131.699 71.7551 131.872C72.0392 132.325 72.0392 132.325 72.0392 132.791C72.1901 132.791 72.3411 132.791 72.4966 132.791C73.4114 134.052 73.4114 134.052 73.4114 134.655C73.5623 134.655 73.7132 134.655 73.8688 134.655C74.7835 135.916 74.7835 135.916 74.7835 136.519C74.9345 136.519 75.0854 136.519 75.2409 136.519C75.3919 136.98 75.5428 137.441 75.6983 137.916C75.8493 137.916 76.0002 137.916 76.1557 137.916C76.3067 138.378 76.4576 138.839 76.6131 139.314C76.764 139.314 76.915 139.314 77.0705 139.314C77.2214 139.776 77.3724 140.237 77.5279 140.712C77.6788 140.712 77.8298 140.712 77.9853 140.712C78.9001 142.255 78.9001 142.255 78.9001 143.042C79.051 143.042 79.2019 143.042 79.3575 143.042C79.5879 143.453 79.8162 143.866 80.0435 144.279C80.1709 144.509 80.2983 144.739 80.4295 144.976C80.7296 145.604 80.7296 145.604 80.7296 146.303C80.8806 146.303 81.0315 146.303 81.187 146.303C84.7879 153.55 84.7879 153.55 85.9628 156.806C86.2202 157.491 86.5118 158.148 86.8187 158.811C87.3486 159.976 87.7094 161.143 88.0479 162.378C88.2082 162.927 88.3702 163.475 88.5339 164.023C88.6099 164.281 88.686 164.538 88.7644 164.803C88.9062 165.384 88.9062 165.384 89.1914 165.64C89.2007 166.105 89.2011 166.572 89.1914 167.037C89.3423 167.037 89.4933 167.037 89.6488 167.037C89.6956 167.27 89.7425 167.503 89.7908 167.743C89.8524 168.043 89.914 168.344 89.9775 168.654C90.0385 168.954 90.0996 169.254 90.1624 169.563C90.2598 170.263 90.2598 170.263 90.5636 170.532C90.6398 171.075 90.716 171.619 90.7922 172.163C90.8677 172.24 90.9432 172.316 91.0209 172.396C91.1346 173.002 91.2381 173.607 91.3354 174.216C91.5381 175.445 91.7635 176.65 92.0787 177.856C92.3537 178.914 92.5008 179.933 92.5736 181.024C92.5973 181.499 92.5973 181.499 92.8505 181.947C92.8973 182.407 92.9341 182.869 92.9649 183.33C93.0161 184.098 93.0687 184.711 93.3079 185.442C93.3545 186.059 93.3929 186.673 93.4223 187.291C93.4557 188.457 93.4557 188.457 93.6504 189.601C93.7988 190.247 93.8157 190.863 93.8377 191.526C93.8521 191.956 93.8521 191.956 93.8668 192.395C93.876 192.708 93.885 193.021 93.8939 193.334C93.9011 193.573 93.9011 193.573 93.9084 193.818C94.0866 199.885 93.9459 205.928 93.7653 212C81.4637 212 69.1622 212 56.4879 212C56.4879 210.344 56.4879 210.344 56.7166 209.437C56.7377 208.921 56.7458 208.405 56.7462 207.888C56.7466 207.735 56.747 207.581 56.7474 207.423C56.7484 206.917 56.7477 206.411 56.7469 205.906C56.7471 205.553 56.7473 205.201 56.7476 204.849C56.7479 204.112 56.7475 203.374 56.7464 202.637C56.7451 201.692 56.7458 200.747 56.7472 199.801C56.748 199.074 56.7478 198.348 56.7472 197.621C56.747 197.272 56.7472 196.923 56.7477 196.575C56.7483 196.088 56.7474 195.601 56.7462 195.114C56.746 194.837 56.7458 194.56 56.7456 194.275C56.7465 193.58 56.7465 193.58 56.4879 192.897C56.4289 192.148 56.3868 191.401 56.3494 190.651C56.3125 189.764 56.3125 189.764 56.0305 188.936C55.9586 188.211 55.9136 187.486 55.8661 186.759C55.868 186.159 55.868 186.159 55.5731 185.908C55.5191 185.413 55.4659 184.919 55.4168 184.423C55.3102 182.718 55.3102 182.718 54.6583 181.248C54.5821 180.705 54.5058 180.161 54.4296 179.618C54.3541 179.541 54.2787 179.464 54.2009 179.385C54.1916 178.841 54.1912 178.297 54.2009 177.754C54.05 177.754 53.899 177.754 53.7435 177.754C53.6812 177.48 53.6812 177.479 53.6176 177.2C53.2493 175.585 53.2493 175.585 52.6715 174.041C52.3772 173.341 52.3045 172.912 52.3713 172.163C52.2204 172.163 52.0695 172.163 51.914 172.163C51.8724 172.008 51.8308 171.853 51.788 171.694C51.4777 170.584 51.1686 169.64 50.5418 168.668C50.1764 167.865 50.0844 167.482 50.0844 166.571C49.9334 166.571 49.7825 166.571 49.627 166.571C49.627 166.264 49.627 165.956 49.627 165.64C49.4761 165.64 49.3251 165.64 49.1696 165.64C49.1696 165.332 49.1696 165.025 49.1696 164.708C49.0187 164.708 48.8677 164.708 48.7122 164.708C48.6258 164.515 48.5395 164.323 48.4505 164.125C47.3744 161.825 46.0742 159.771 44.5957 157.719C44.4453 157.51 44.4453 157.51 44.292 157.296C42.4554 154.772 40.3995 152.143 37.976 150.185C37.8209 150.058 37.6659 149.93 37.5061 149.798C37.5061 149.644 37.5061 149.49 37.5061 149.332C37.3752 149.269 37.2443 149.207 37.1095 149.143C36.5733 148.856 36.1056 148.534 35.6194 148.167C35.4578 148.047 35.2963 147.927 35.1298 147.803C34.9476 147.637 34.9476 147.637 34.7618 147.468C34.7618 147.314 34.7618 147.161 34.7618 147.002C34.5872 146.935 34.4127 146.868 34.2329 146.798C33.6183 146.536 33.6183 146.536 32.9322 146.07C32.9322 145.917 32.9322 145.763 32.9322 145.604C32.7765 145.552 32.6209 145.499 32.4605 145.444C31.7866 145.137 31.2498 144.746 30.6578 144.302C29.7119 143.641 28.684 143.123 27.6722 142.576C27.3986 142.422 27.1253 142.268 26.8521 142.114C25.0362 141.094 23.2205 140.271 21.2687 139.547C20.9951 139.427 20.7216 139.307 20.4397 139.183C16.7116 137.566 12.801 136.565 8.83338 135.776C8.55825 135.721 8.28313 135.665 7.99966 135.608C5.3379 135.096 2.70005 134.781 0 134.422C0 122.352 0 110.282 0 97.8462C0.226409 97.923 0.452818 97.9999 0.686088 98.0791C0.686088 98.2329 0.686088 98.3866 0.686088 98.5451C0.837027 98.4682 0.987966 98.3913 1.14348 98.3121C1.56653 98.2791 1.99061 98.2594 2.41471 98.2466C2.66809 98.2379 2.92147 98.2291 3.18253 98.2202C3.4483 98.2121 3.71407 98.204 3.98788 98.1956C4.51171 98.1796 5.03551 98.1626 5.55927 98.1446C5.7923 98.1376 6.02532 98.1305 6.26541 98.1233C6.88669 98.1023 6.88669 98.1023 7.54696 97.8462C8.25415 97.775 8.96147 97.7277 9.67044 97.6787C10.283 97.6516 10.283 97.6516 10.7487 97.3802C11.0575 97.3383 11.3675 97.3056 11.6778 97.2783C13.2804 97.1085 14.7738 96.7327 16.2928 96.1935C16.9505 95.9734 17.6139 95.7803 18.2801 95.5888C24.2578 93.8589 29.706 90.8932 34.5724 86.9613C34.9905 86.6637 34.9905 86.6637 35.4479 86.6637C35.4479 86.51 35.4479 86.3562 35.4479 86.1978C35.7677 85.8693 35.7677 85.8693 36.2197 85.4843C36.3866 85.339 36.5534 85.1936 36.7253 85.0439C36.9075 84.8865 37.0897 84.7292 37.2774 84.567C38.6944 83.3376 39.9172 82.102 41.0295 80.5766C41.1497 80.4327 41.27 80.2889 41.3939 80.1407C41.5449 80.1407 41.6958 80.1407 41.8513 80.1407C41.9362 79.9533 41.9362 79.9533 42.0229 79.7621C42.3788 79.0731 42.774 78.4406 43.2235 77.811C43.3745 77.811 43.5254 77.811 43.6809 77.811C43.7422 77.6419 43.8035 77.4728 43.8667 77.2986C44.1353 76.6535 44.4446 76.1082 44.8244 75.525C44.9423 75.3409 45.0602 75.1568 45.1817 74.9672C45.2902 74.8293 45.3987 74.6915 45.5105 74.5494C45.6614 74.5494 45.8123 74.5494 45.9679 74.5494C46.0032 74.3621 46.0032 74.3621 46.0393 74.1709C46.2379 73.472 46.5525 72.8632 46.8826 72.2198C47.0336 72.2198 47.1845 72.2198 47.34 72.2198C47.3604 72.0994 47.3807 71.9789 47.4017 71.8549C47.6331 71.0695 48.024 70.3853 48.4121 69.6717C49.5822 67.478 50.6213 65.251 51.4566 62.9011C51.6841 62.357 51.9128 61.8134 52.1427 61.2703C52.732 59.867 53.2022 58.478 53.5791 57.0005C53.8879 55.8313 54.2845 54.692 54.6869 53.5533C54.9144 52.7917 55.0096 52.0402 55.1157 51.2527C55.1912 51.1759 55.2666 51.099 55.3444 51.0198C55.3821 50.7507 55.4199 50.4816 55.4587 50.2044C55.5731 49.389 55.5731 49.389 55.8018 49.156C55.9154 48.511 56.0189 47.8672 56.1162 47.2195C56.3135 45.9494 56.531 44.7061 56.8595 43.4629C57.151 42.3525 57.285 41.2812 57.3544 40.1349C57.4027 39.6044 57.4027 39.6044 57.6314 38.9055C57.6773 38.4014 57.7144 37.8965 57.7457 37.3912C57.7953 36.5903 57.8393 35.9402 58.0887 35.178C58.1354 34.5172 58.1738 33.8594 58.2031 33.1978C58.2865 31.312 58.2865 31.312 58.5461 30.5187C58.5719 30.2086 58.5863 29.8974 58.5931 29.5863C58.5977 29.3993 58.6022 29.2124 58.6069 29.0197C58.6107 28.8174 58.6146 28.615 58.6185 28.4065C58.6256 28.0894 58.6256 28.0894 58.6329 27.7659C58.6428 27.316 58.6522 26.8662 58.6611 26.4163C58.6745 25.743 58.6894 25.0697 58.7047 24.3965C58.7939 20.3191 58.793 16.2505 58.6897 12.1735C58.6745 11.5654 58.661 10.9574 58.6475 10.3493C58.6379 9.95812 58.6283 9.56696 58.6185 9.17581C58.6128 8.90645 58.6128 8.90645 58.6069 8.63165C58.5829 7.74626 58.5063 6.92086 58.3174 6.05714C58.289 5.73647 58.2673 5.41508 58.2531 5.09342C58.2403 4.83418 58.2403 4.83418 58.2272 4.5697C58.211 4.20934 58.1949 3.84897 58.179 3.48859C58.1526 2.52876 58.1526 2.52876 57.86 1.63077C57.86 1.09262 57.86 0.554462 57.86 0Z"
              fill="#FFFFFF"
            />
          </svg>